<?xml version="1.0" encoding="UTF-8" standalone="no"?>
<svg
   xmlns:dc="http://purl.org/dc/elements/1.1/"
   xmlns:cc="http://creativecommons.org/ns#"
   xmlns:rdf="http://www.w3.org/1999/02/22-rdf-syntax-ns#"
   xmlns:svg="http://www.w3.org/2000/svg"
   xmlns="http://www.w3.org/2000/svg"
   xmlns:sodipodi="http://sodipodi.sourceforge.net/DTD/sodipodi-0.dtd"
   xmlns:inkscape="http://www.inkscape.org/namespaces/inkscape"
   version="1.1"
   id="Capa_1"
   x="0px"
   y="0px"
   viewBox="0 0 512.001 512.001"
   style="enable-background:new 0 0 512.001 512.001;"
   xml:space="preserve"
   sodipodi:docname="pixels.svg"
   inkscape:version="1.0.1 (3bc2e813f5, 2020-09-07)"><metadata
   id="metadata43"><rdf:RDF><cc:Work
       rdf:about=""><dc:format>image/svg+xml</dc:format><dc:type
         rdf:resource="http://purl.org/dc/dcmitype/StillImage" /></cc:Work></rdf:RDF></metadata><defs
   id="defs41" /><sodipodi:namedview
   pagecolor="#ffffff"
   bordercolor="#666666"
   borderopacity="1"
   objecttolerance="10"
   gridtolerance="10"
   guidetolerance="10"
   inkscape:pageopacity="0"
   inkscape:pageshadow="2"
   inkscape:window-width="2560"
   inkscape:window-height="1417"
   id="namedview39"
   showgrid="false"
   inkscape:zoom="1.9687462"
   inkscape:cx="256.00049"
   inkscape:cy="256.00049"
   inkscape:window-x="2552"
   inkscape:window-y="-8"
   inkscape:window-maximized="1"
   inkscape:current-layer="Capa_1" />
<rect
   style="fill:#ffffff;stroke-width:26.4567"
   id="rect868"
   width="467.81042"
   height="469.33423"
   x="17.269875"
   y="19.809561"
   ry="2.47014" /><g
   id="g6">
	<g
   id="g4">
		<path
   d="M511.78,171.836V56.973c0-31.354-25.508-56.863-56.863-56.863H56.863C25.508,0.11,0,25.619,0,56.973v398.055    c0,31.354,25.508,56.863,56.863,56.863h398.055c31.354,0,56.863-25.508,56.863-56.863V176.985    c0.145-0.837,0.221-1.697,0.221-2.575S511.925,172.673,511.78,171.836z M348.436,30.094h106.482    c14.821,0,26.879,12.058,26.879,26.879v102.446H348.436V30.094z M155.336,481.907H56.863c-14.822,0-26.879-12.058-26.879-26.879    V352.519h125.352V481.907z M155.336,322.535H29.984V189.403h125.352V322.535z M155.337,159.419H29.984V56.973    c0-14.821,12.057-26.879,26.879-26.879h98.474V159.419z M318.452,481.907H185.319V352.519h133.133V481.907z M318.452,322.535    H185.319V189.403h133.133V322.535z M318.452,159.419H185.319V30.094h133.133V159.419z M481.797,455.028    c0,14.821-12.058,26.879-26.879,26.879H348.436V352.519h133.361V455.028z M481.797,322.535H348.436V189.403h133.361V322.535z"
   id="path2" />
	</g>
</g>
<g
   id="g8">
</g>
<g
   id="g10">
</g>
<g
   id="g12">
</g>
<g
   id="g14">
</g>
<g
   id="g16">
</g>
<g
   id="g18">
</g>
<g
   id="g20">
</g>
<g
   id="g22">
</g>
<g
   id="g24">
</g>
<g
   id="g26">
</g>
<g
   id="g28">
</g>
<g
   id="g30">
</g>
<g
   id="g32">
</g>
<g
   id="g34">
</g>
<g
   id="g36">
</g>
</svg>
